<svg viewBox="9.450000000000001 21.15 135.9 136.35" version="1.1" xmlns:xlink="http://www.w3.org/1999/xlink" xmlns="http://www.w3.org/2000/svg" style="max-height: 500px" width="135.9" height="136.35">
  <defs>
    <style>
      .cls-1 {
        fill: none;
      }

      .cls-2 {
        fill: #02731e;
      }

      .cls-3 {
        fill: #242430;
      }

      .cls-4 {
        clip-path: url(#clippath-17);
      }

      .cls-5 {
        clip-path: url(#clippath-19);
      }

      .cls-6 {
        clip-path: url(#clippath-11);
      }

      .cls-7 {
        clip-path: url(#clippath-16);
      }

      .cls-8 {
        clip-path: url(#clippath-18);
      }

      .cls-9 {
        clip-path: url(#clippath-10);
      }

      .cls-10 {
        clip-path: url(#clippath-15);
      }

      .cls-11 {
        clip-path: url(#clippath-13);
      }

      .cls-12 {
        clip-path: url(#clippath-14);
      }

      .cls-13 {
        clip-path: url(#clippath-12);
      }

      .cls-14 {
        clip-path: url(#clippath-26);
      }

      .cls-15 {
        clip-path: url(#clippath-20);
      }

      .cls-16 {
        clip-path: url(#clippath-21);
      }

      .cls-17 {
        clip-path: url(#clippath-22);
      }

      .cls-18 {
        clip-path: url(#clippath-23);
      }

      .cls-19 {
        clip-path: url(#clippath-24);
      }

      .cls-20 {
        clip-path: url(#clippath-25);
      }

      .cls-21 {
        clip-path: url(#clippath-1);
      }

      .cls-22 {
        clip-path: url(#clippath-3);
      }

      .cls-23 {
        clip-path: url(#clippath-4);
      }

      .cls-24 {
        clip-path: url(#clippath-2);
      }

      .cls-25 {
        clip-path: url(#clippath-7);
      }

      .cls-26 {
        clip-path: url(#clippath-6);
      }

      .cls-27 {
        clip-path: url(#clippath-9);
      }

      .cls-28 {
        clip-path: url(#clippath-8);
      }

      .cls-29 {
        clip-path: url(#clippath-5);
      }

      .cls-30 {
        fill: #269f44;
      }

      .cls-31 {
        fill: #014011;
      }

      .cls-32 {
        fill: #024059;
      }

      .cls-33 {
        fill: #84c1d9;
      }

      .cls-34 {
        clip-path: url(#clippath);
      }
    </style>
    <clipPath id="clippath">
      <rect height="30.7" width="30.7" y="29.3" x="17.3" class="cls-1"/>
    </clipPath>
    <clipPath id="clippath-1">
      <rect transform="translate(-20.9 32) rotate(-40.3)" height="29.1" width="29.1" y="30" x="18.6" class="cls-1"/>
    </clipPath>
    <clipPath id="clippath-2">
      <path d="M23.7,33.4c-6.1,5.2-6.9,14.4-1.7,20.5,5.2,6.1,14.4,6.9,20.5,1.7,6.1-5.2,6.9-14.4,1.7-20.5-5.2-6.1-14.4-6.9-20.5-1.7Z" class="cls-1"/>
    </clipPath>
    <clipPath id="clippath-3">
      <rect height="30.7" width="30.7" y="29.3" x="17.3" class="cls-1"/>
    </clipPath>
    <clipPath id="clippath-4">
      <rect height="30.7" width="30.7" y="29.3" x="17.3" class="cls-1"/>
    </clipPath>
    <clipPath id="clippath-5">
      <rect transform="translate(-20.9 32) rotate(-40.3)" height="29.1" width="29.1" y="30" x="18.6" class="cls-1"/>
    </clipPath>
    <clipPath id="clippath-6">
      <path d="M23.7,33.4c-6.1,5.2-6.9,14.4-1.7,20.5,5.2,6.1,14.4,6.9,20.5,1.7,6.1-5.2,6.9-14.4,1.7-20.5-5.2-6.1-14.4-6.9-20.5-1.7Z" class="cls-1"/>
    </clipPath>
    <clipPath id="clippath-7">
      <rect height="30.7" width="29.3" y="29.3" x="106.7" class="cls-1"/>
    </clipPath>
    <clipPath id="clippath-8">
      <rect transform="translate(9.6 109.4) rotate(-50.3)" height="29.1" width="29.1" y="30" x="106.7" class="cls-1"/>
    </clipPath>
    <clipPath id="clippath-9">
      <path d="M130.6,33.3c-6.2-5.1-15.3-4.3-20.5,1.9-5.1,6.2-4.3,15.4,1.9,20.5,6.2,5.1,15.3,4.3,20.5-1.9,5.1-6.2,4.3-15.3-1.9-20.5Z" class="cls-1"/>
    </clipPath>
    <clipPath id="clippath-10">
      <rect height="30.7" width="29.3" y="29.3" x="106.7" class="cls-1"/>
    </clipPath>
    <clipPath id="clippath-11">
      <rect height="30.7" width="29.3" y="29.3" x="106.7" class="cls-1"/>
    </clipPath>
    <clipPath id="clippath-12">
      <rect transform="translate(9.6 109.4) rotate(-50.3)" height="29.1" width="29.1" y="30" x="106.7" class="cls-1"/>
    </clipPath>
    <clipPath id="clippath-13">
      <path d="M130.6,33.3c-6.2-5.1-15.3-4.3-20.5,1.9-5.1,6.2-4.3,15.4,1.9,20.5s15.3,4.3,20.5-1.9c5.1-6.2,4.3-15.3-1.9-20.5Z" class="cls-1"/>
    </clipPath>
    <clipPath id="clippath-14">
      <rect height="30.7" width="30.7" y="118.7" x="105.3" class="cls-1"/>
    </clipPath>
    <clipPath id="clippath-15">
      <rect transform="translate(-58 110.2) rotate(-40.3)" height="29.1" width="29.1" y="119.6" x="106.6" class="cls-1"/>
    </clipPath>
    <clipPath id="clippath-16">
      <path d="M130.5,145.2c6.1-5.2,6.9-14.4,1.7-20.5-5.2-6.1-14.4-6.9-20.5-1.7-6.1,5.2-6.9,14.4-1.7,20.5,5.2,6.1,14.4,6.9,20.5,1.7Z" class="cls-1"/>
    </clipPath>
    <clipPath id="clippath-17">
      <rect height="30.7" width="30.7" y="118.7" x="105.3" class="cls-1"/>
    </clipPath>
    <clipPath id="clippath-18">
      <rect height="30.7" width="30.7" y="118.7" x="105.3" class="cls-1"/>
    </clipPath>
    <clipPath id="clippath-19">
      <rect transform="translate(-58 110.2) rotate(-40.3)" height="29.1" width="29.1" y="119.6" x="106.6" class="cls-1"/>
    </clipPath>
    <clipPath id="clippath-20">
      <path d="M130.5,145.2c6.1-5.2,6.9-14.4,1.7-20.5-5.2-6.1-14.4-6.9-20.5-1.7-6.1,5.2-6.9,14.4-1.7,20.5,5.2,6.1,14.4,6.9,20.5,1.7Z" class="cls-1"/>
    </clipPath>
    <clipPath id="clippath-21">
      <rect transform="translate(-91.3 73.8) rotate(-50.3)" height="29.1" width="29.1" y="119.6" x="18.4" class="cls-1"/>
    </clipPath>
    <clipPath id="clippath-22">
      <path d="M23.7,145.3c6.2,5.1,15.3,4.3,20.5-1.9,5.1-6.2,4.3-15.3-1.9-20.5-6.2-5.1-15.4-4.3-20.5,1.9-5.1,6.2-4.3,15.4,1.9,20.5Z" class="cls-1"/>
    </clipPath>
    <clipPath id="clippath-23">
      <rect height="30.7" width="30.7" y="118.7" x="17.3" class="cls-1"/>
    </clipPath>
    <clipPath id="clippath-24">
      <rect height="30.7" width="30.7" y="118.7" x="17.3" class="cls-1"/>
    </clipPath>
    <clipPath id="clippath-25">
      <rect transform="translate(-91.3 73.8) rotate(-50.3)" height="29.1" width="29.1" y="119.6" x="18.4" class="cls-1"/>
    </clipPath>
    <clipPath id="clippath-26">
      <path d="M23.7,145.3c6.2,5.1,15.3,4.3,20.5-1.9,5.1-6.2,4.3-15.3-1.9-20.5-6.2-5.1-15.4-4.3-20.5,1.9-5.1,6.2-4.3,15.4,1.9,20.5Z" class="cls-1"/>
    </clipPath>
  </defs>
  
  <g>
    <g id="Layer_1">
      <g id="logomark">
        <g class="cls-34">
          <g class="cls-21">
            <g class="cls-24">
              <g class="cls-22">
                <g class="cls-23">
                  <g class="cls-29">
                    <g class="cls-26">
                      <path d="M12.6,42.8l22.2-18.8,18.8,22.2-22.2,18.8-18.8-22.2Z" class="cls-32"/>
                    </g>
                  </g>
                </g>
              </g>
            </g>
          </g>
        </g>
        <g class="cls-25">
          <g class="cls-28">
            <g class="cls-27">
              <g class="cls-9">
                <g class="cls-6">
                  <g class="cls-13">
                    <g class="cls-11">
                      <path d="M119.4,24l22.4,18.6-18.6,22.4-22.4-18.6,18.6-22.4Z" class="cls-33"/>
                    </g>
                  </g>
                </g>
              </g>
            </g>
          </g>
        </g>
        <g class="cls-12">
          <g class="cls-10">
            <g class="cls-7">
              <g class="cls-4">
                <g class="cls-8">
                  <g class="cls-5">
                    <g class="cls-15">
                      <path d="M141.6,135.8l-22.2,18.8-18.8-22.2,22.2-18.8,18.8,22.2Z" class="cls-31"/>
                    </g>
                  </g>
                </g>
              </g>
            </g>
          </g>
        </g>
        <g class="cls-16">
          <g class="cls-17">
            <g class="cls-18">
              <g class="cls-19">
                <g class="cls-20">
                  <g class="cls-14">
                    <path d="M34.9,154.6l-22.4-18.6,18.6-22.4,22.4,18.6-18.6,22.4Z" class="cls-30"/>
                  </g>
                </g>
              </g>
            </g>
          </g>
        </g>
      </g>
      <g id="logotype">
        <g>
          <path d="M173.1,87.9l9.8-55.6h28.5c3.6,0,6.6.6,9,1.9s4.3,3.1,5.6,5.4c1.3,2.3,1.9,5.1,1.9,8.1s-.5,6.3-1.6,8.9c-1,2.7-2.5,4.9-4.5,6.8-1.9,1.9-4.3,3.4-7,4.4-2.7,1-5.8,1.5-9.2,1.5h-15.5l-3.2,18.3h-13.8ZM192.2,57.9h12.1c3.1,0,5.6-.7,7.4-2,1.8-1.4,2.7-3.4,2.7-6.2s-.5-3.1-1.6-4.1c-1.1-1-2.8-1.5-5.2-1.5h-13l-2.4,13.9Z" class="cls-3"/>
          <path d="M229.2,87.9l9.8-55.6h41.3l-2.1,11.7h-27.4l-1.8,10.2h25.6l-2,11.7h-25.6l-1.9,10.3h29.6l-2,11.7h-43.5Z" class="cls-3"/>
          <path d="M281.8,87.9l9.8-55.6h22c5,0,9.2.7,12.5,2,3.3,1.3,5.9,3.3,7.8,5.8,1.8,2.5,3,5.5,3.4,9.1.4,3.6.3,7.6-.5,12-1,5.7-2.7,10.5-5.3,14.5-2.6,4-6.1,7-10.5,9.1-4.4,2.1-9.9,3.1-16.4,3.1h-22.8ZM297.7,76.1h7.1c3.9,0,7-.7,9.6-2.1,2.5-1.4,4.5-3.4,6-5.9,1.5-2.6,2.5-5.6,3.2-9.2.4-2.3.5-4.4.4-6.3,0-1.8-.6-3.4-1.4-4.7-.8-1.3-2.1-2.3-3.7-2.9-1.7-.7-3.9-1-6.6-1h-8.8l-5.6,32.1Z" class="cls-3"/>
          <path d="M379.2,87.9l-1.8-11.2h-21.2l-5.7,11.2h-15.3l30-55.6h18.4l10.4,55.6h-14.8ZM361.9,65.5h13.9l-3.1-20.4h-.4l-10.4,20.4Z" class="cls-3"/>
          <path d="M400.8,87.9l9.8-55.6h13.9l-7.7,43.8h25.8l-2.1,11.8h-39.6Z" class="cls-3"/>
          <path d="M174.6,144.2l7.6-43.3h30.1l-.7,3.8h-26l-2.8,16h23.3l-.7,3.8h-23.3l-3.4,19.8h-4.1Z" class="cls-2"/>
          <path d="M213.9,144.2l7.6-43.3h4.1l-7,39.5h21.6l-.6,3.8h-25.8Z" class="cls-2"/>
          <path d="M265.1,144.8c-3.4,0-6.3-.7-8.7-2-2.4-1.4-4.3-3.3-5.6-5.8-1.3-2.5-1.9-5.5-1.9-9s.4-5.8,1.1-8.5c.7-2.7,1.7-5.3,3.1-7.6,1.4-2.3,3-4.3,4.9-6.1,1.9-1.7,4.1-3.1,6.5-4,2.4-1,5.1-1.5,7.9-1.5s6.3.7,8.6,2c2.4,1.3,4.2,3.3,5.5,5.8,1.3,2.5,1.9,5.5,1.9,9s-.4,5.8-1.1,8.5c-.7,2.7-1.7,5.3-3.1,7.6-1.3,2.3-3,4.3-4.9,6.1-1.9,1.7-4.1,3.1-6.5,4.1-2.4,1-5,1.4-7.9,1.4ZM265.3,140.9c2.4,0,4.5-.4,6.5-1.3,2-.8,3.8-2,5.4-3.5,1.6-1.5,2.9-3.2,4-5.2,1.1-2,2-4.1,2.5-6.4.6-2.3.9-4.6.9-7s-.5-5.1-1.5-7.1c-1-2-2.4-3.5-4.2-4.6-1.8-1.1-4.1-1.6-6.7-1.6s-4.6.4-6.6,1.3c-2,.8-3.8,2-5.4,3.5s-2.9,3.2-4,5.2c-1.1,2-1.9,4.1-2.5,6.4-.6,2.3-.9,4.6-.9,7.1s.5,5.1,1.5,7.1c1,2,2.4,3.5,4.2,4.6,1.9,1.1,4.1,1.6,6.8,1.6Z" class="cls-2"/>
          <path d="M333.9,111.4c0,2.8-.5,5.3-1.6,7.4-1.1,2.1-2.6,3.9-4.5,5.2-2,1.3-4.3,2.2-7,2.6l7.2,17.6h-4.7l-6.9-17.4h-14.3l-3.1,17.3h-4.1l7.6-43.3h19.1c2.5,0,4.7.4,6.5,1.2,1.8.8,3.2,2,4.2,3.6,1,1.6,1.5,3.5,1.5,5.8ZM318.1,123.1c2.5,0,4.6-.5,6.4-1.4,1.7-.9,3.1-2.3,4-4,.9-1.7,1.4-3.8,1.4-6.1s-.7-3.9-2-5.1c-1.3-1.2-3.4-1.8-6.2-1.8h-15.6l-3.3,18.4h15.4Z" class="cls-2"/>
          <path d="M338.9,144.2l7.6-43.3h4.1l-7.6,43.3h-4.1Z" class="cls-2"/>
          <path d="M356.4,144.2l7.6-43.3h13.2c4.6,0,8.4.8,11.3,2.5,2.9,1.7,5,4.2,6.1,7.5,1.1,3.3,1.2,7.4.4,12.3-.8,4.5-2.3,8.3-4.6,11.4-2.2,3.1-5.1,5.5-8.6,7.1-3.5,1.6-7.5,2.4-12.1,2.4h-13.4ZM361.3,140.3h8.2c6.1,0,11-1.5,14.5-4.4,3.5-3,5.9-7.5,7-13.6,1-5.9.4-10.3-2-13.2-2.3-2.9-6.4-4.3-12.3-4.3h-9.1l-6.3,35.6Z" class="cls-2"/>
          <path d="M432.9,144.2l-2.3-11.1h-22.7l-6.3,11.1h-4.4l24.7-43.3h5.9l9.4,43.3h-4.3ZM409.9,129.6h20l-5.3-25.5h-.3l-14.3,25.5Z" class="cls-2"/>
        </g>
      </g>
      <g>
        <path d="M137.8,74.2c-2.9-3-6.5-4.9-10.3-5.8-7.1-1.7-13.6-5.4-18.8-10.6-1.9-1.9-3.6-4-5.1-6.2-2.6,9-9.7,16.1-18.8,18.7,2.2,1.5,4.3,3.2,6.2,5.1,2.6,2.6,4.8,5.6,6.6,8.8,1.8,3.2,3.2,6.7,4,10.3.9,3.6,2.8,7.1,5.6,9.9,8.4,8.4,22.2,8.4,30.5-.2,8.1-8.3,8-21.7,0-29.9ZM130.1,96.7c-4.2,4.2-11,4.2-15.2,0s-4.2-11,0-15.2c4.2-4.2,11-4.2,15.2,0,4.2,4.2,4.2,11,0,15.2Z" class="cls-33"/>
        <path d="M118.7,85.4c-2.1,2.1-2.1,5.5,0,7.6,2.1,2.1,5.5,2.1,7.6,0,2.1-2.1,2.1-5.5,0-7.6-2.1-2.1-5.5-2.1-7.6,0Z" class="cls-33"/>
      </g>
      <g>
        <path d="M73.3,40.1c-2.1,2.1-2.1,5.5,0,7.6,2.1,2.1,5.5,2.1,7.6,0,2.1-2.1,2.1-5.5,0-7.6s-5.5-2.1-7.6,0Z" class="cls-32"/>
        <path d="M92,28.5c-8.3-8.1-21.7-8-29.9,0-3,2.9-4.9,6.5-5.8,10.3-1.7,7.1-5.4,13.6-10.6,18.8-1.9,1.9-4,3.6-6.2,5.1,9,2.6,16.1,9.7,18.7,18.8,1.5-2.2,3.2-4.3,5.1-6.2,2.6-2.6,5.6-4.8,8.8-6.6,3.2-1.8,6.7-3.2,10.3-4,3.6-.9,7.1-2.8,9.9-5.6,8.4-8.4,8.4-22.2-.2-30.5ZM84.6,51.4c-4.2,4.2-11,4.2-15.2,0s-4.2-11,0-15.2c4.2-4.2,11-4.2,15.2,0,4.2,4.2,4.2,11,0,15.2Z" class="cls-32"/>
      </g>
      <g>
        <path d="M28,85.7c-2.1,2.1-2.1,5.5,0,7.6,2.1,2.1,5.5,2.1,7.6,0s2.1-5.5,0-7.6c-2.1-2.1-5.5-2.1-7.6,0Z" class="cls-30"/>
        <path d="M69.5,108.4c-2.2-1.5-4.3-3.2-6.2-5.1s-4.8-5.6-6.6-8.8c-1.8-3.2-3.2-6.7-4-10.3-.9-3.6-2.8-7.1-5.6-9.9-8.4-8.4-22.2-8.4-30.5.2-8.1,8.3-8,21.7,0,29.9,2.9,3,6.5,4.9,10.3,5.8,7.1,1.7,13.6,5.4,18.8,10.6,1.9,1.9,3.6,4,5.1,6.2,2.6-9,9.7-16.1,18.8-18.7ZM39.3,97.1c-4.2,4.2-11,4.2-15.2,0-4.2-4.2-4.2-11,0-15.2,4.2-4.2,11-4.2,15.2,0,4.2,4.2,4.2,11,0,15.2Z" class="cls-30"/>
      </g>
      <g>
        <path d="M96.2,97c-1.5,2.3-3.2,4.4-5.1,6.3-2.6,2.6-5.6,4.8-8.8,6.6-3.2,1.8-6.7,3.2-10.3,4-3.6.9-7.1,2.8-9.9,5.6-8.4,8.4-8.4,22.2.2,30.5,8.3,8.1,21.7,8,29.9,0,3-2.9,4.9-6.5,5.8-10.3,1.7-7.1,5.4-13.6,10.6-18.8,2-2,4.2-3.8,6.6-5.3-9.1-2.5-16.4-9.6-19-18.6ZM84.8,142.4c-4.2,4.2-11,4.2-15.2,0-4.2-4.2-4.2-11,0-15.2,4.2-4.2,11-4.2,15.2,0,4.2,4.2,4.2,11,0,15.2Z" class="cls-31"/>
        <path d="M73.4,131c-2.1,2.1-2.1,5.5,0,7.6,2.1,2.1,5.5,2.1,7.6,0,2.1-2.1,2.1-5.5,0-7.6s-5.5-2.1-7.6,0Z" class="cls-31"/>
      </g>
    </g>
  </g>
</svg>